<svg width="48" height="48" viewBox="0 0 48 48" fill="none" xmlns="http://www.w3.org/2000/svg">
<path d="M33.7261 31.2913L29.832 27.3971C29.6562 27.2214 29.4179 27.1237 29.168 27.1237H28.5313C29.6093 25.7449 30.2499 24.0107 30.2499 22.1242C30.2499 17.6364 26.6135 14 22.1257 14C17.6378 14 14.0015 17.6364 14.0015 22.1242C14.0015 26.612 17.6378 30.2484 22.1257 30.2484C24.0122 30.2484 25.7464 29.6079 27.1252 28.5298V29.1665C27.1252 29.4165 27.2228 29.6547 27.3986 29.8305L31.2927 33.7246C31.6599 34.0918 32.2536 34.0918 32.6168 33.7246L33.7222 32.6193C34.0893 32.2521 34.0893 31.6584 33.7261 31.2913ZM22.1257 27.1237C19.3642 27.1237 17.1262 24.8896 17.1262 22.1242C17.1262 19.3628 19.3603 17.1247 22.1257 17.1247C24.8871 17.1247 27.1252 19.3589 27.1252 22.1242C27.1252 24.8857 24.891 27.1237 22.1257 27.1237Z" fill="white"/>
</svg>
